<?xml version="1.0" encoding="UTF-8"?>
<svg width="365px" height="243px" viewBox="0 0 365 243" version="1.1" xmlns="http://www.w3.org/2000/svg" xmlns:xlink="http://www.w3.org/1999/xlink">
    <!-- Generator: Sketch 54 (76480) - https://sketchapp.com -->
    <title>airplane</title>
    <desc>Created with Sketch.</desc>
    <g id="Page-1" stroke="none" stroke-width="1" fill="none" fill-rule="evenodd">
        <g id="Artboard" transform="translate(-71.000000, -82.000000)" fill="#FFFFFF" fill-rule="nonzero">
            <g id="airplane" transform="translate(71.000000, 82.000000)">
                <path d="M43.5113913,144.444566 C40.369186,145.81419 38.9828607,149.262378 40.3831693,152.209483 L54.7358343,180.834265 C55.4409825,182.259565 56.7274293,183.369369 58.3095185,183.916848 C59.0026809,184.150686 59.7377931,184.271317 60.4769006,184.271317 C61.4017832,184.27874 62.314681,184.09501 63.1556652,183.740541 L171.596693,136.68336 L161.774555,232.094968 C161.584784,233.973098 162.363844,235.819679 163.876017,237.07424 C168.630275,240.730283 174.55512,242.812558 180.719674,243 C182.419621,242.998144 184.10958,242.799567 185.757589,242.409837 C194.560957,240.275598 201.386713,232.987637 206.043089,220.540385 L248.717548,103.142406 L333.235469,66.5151568 C358.113422,55.7307558 370.933938,33.8631597 362.324336,16.7948168 C357.438237,7.87369913 348.07954,1.80503736 337.38246,0.615431344 C325.496815,-1.05113099 313.349487,0.685953779 302.554525,5.59655904 L205.020324,48.0864692 L100.154978,9.98009964 C86.9489283,5.35900899 76.4895609,5.47778401 69.1544201,10.3976685 C62.9998531,15.089282 59.4980826,22.1415492 59.6479018,29.5371504 C59.7118246,31.4134248 60.7285964,33.1486538 62.3905891,34.2213405 L133.003305,79.3187336 L92.564146,97.0978705 L24.7540458,81.0947913 C21.9754016,80.4600875 19.0828951,81.6237117 17.6745962,83.9398247 L0.773009645,112.206425 C-0.103931333,113.704104 -0.241764733,115.482017 0.395465762,117.081769 C1.02870083,118.683376 2.37507445,119.950928 4.09100212,120.563362 L54.2923702,139.825331 L43.5113913,144.444566 Z M72.7221109,26.5751982 C73.0976573,24.0697872 74.4620096,21.7889356 76.5514857,20.1743379 C80.1890927,17.7431613 86.8230802,18.0994864 95.6883732,21.1802136 L189.075582,55.0199614 L146.463048,73.5098922 L72.7221109,26.5751982 Z M15.3154456,112.148894 L26.414041,93.8371249 L91.6692269,108.888148 C93.0755284,109.218491 94.5597359,109.094148 95.882139,108.535535 L307.977974,16.4997355 C316.409791,12.6358351 325.906321,11.2290936 335.215078,12.468808 C341.743194,13.0274217 347.55817,16.527573 350.780278,21.8316205 C356.133813,32.5009584 345.610523,48.0864692 327.812019,55.7901433 L254.328771,87.7944454 L258.795376,75.5235004 C259.924013,72.3666826 258.08024,68.9556125 254.682344,67.9089076 C251.280452,66.8622027 247.610884,68.5751614 246.484245,71.7319788 L193.985652,216.863927 C190.859427,225.103944 186.968127,230.023828 182.631365,231.087236 C179.94461,231.567904 177.163968,231.077957 174.848765,229.726891 L187.607355,105.272933 C187.940952,102.001052 185.358072,99.0966313 181.83233,98.7867031 C178.310584,98.4730625 175.184359,100.876401 174.848765,104.148282 L172.873151,123.170845 L63.4093589,170.580639 L54.4202158,152.801502 L72.4044949,144.980909 C74.7196983,144.032564 76.2118961,141.905749 76.2118961,139.558087 C76.2118961,137.208568 74.7196983,135.081753 72.4044949,134.135264 L15.3154456,112.148894 Z" id="Shape"></path>
            </g>
        </g>
    </g>
</svg>