<?xml version="1.0" encoding="UTF-8"?>
<svg width="212px" height="248px" viewBox="0 0 212 248" version="1.1" xmlns="http://www.w3.org/2000/svg" xmlns:xlink="http://www.w3.org/1999/xlink">
    <!-- Generator: Sketch 54 (76480) - https://sketchapp.com -->
    <title>home (1)</title>
    <desc>Created with Sketch.</desc>
    <g id="Page-1" stroke="none" stroke-width="1" fill="none" fill-rule="evenodd">
        <g id="Artboard" transform="translate(-18.000000, -130.000000)" fill="#FFFFFF" fill-rule="nonzero">
            <g id="home-(1)" transform="translate(18.000000, 129.000000)">
                <path d="M205.779,123.895 C202.466,123.895 199.779,126.582 199.779,129.895 L199.779,236.79 L135.395,236.79 L135.395,169.688 C135.395,166.375 132.708,163.688 129.395,163.688 L82.395,163.688 C79.082,163.688 76.395,166.375 76.395,169.688 L76.395,222.895 C76.395,226.208 79.082,228.895 82.395,228.895 C85.708,228.895 88.395,226.208 88.395,222.895 L88.395,175.688 L123.395,175.688 L123.395,236.79 L12.01,236.79 L12.01,89.929 L105.894,14.69 L202.026,91.73 C204.612,93.803 208.388,93.385 210.46,90.8 C212.532,88.214 212.116,84.439 209.53,82.366 L109.646,2.318 C107.454,0.56 104.334,0.56 102.142,2.318 L2.258,82.366 C0.837,83.505 0.01,85.226 0.01,87.048 L0.01,242.789 C0.01,246.102 2.696,248.789 6.01,248.789 L205.779,248.789 C209.093,248.789 211.779,246.102 211.779,242.789 L211.779,129.895 C211.779,126.581 209.093,123.895 205.779,123.895 Z" id="Path"></path>
            </g>
        </g>
    </g>
</svg>